<?xml version="1.0" encoding="us-ascii" standalone="no"?><svg xmlns="http://www.w3.org/2000/svg" xmlns:xlink="http://www.w3.org/1999/xlink" contentStyleType="text/css" height="554px" preserveAspectRatio="none" style="width:623px;height:554px;background:#FFFFFF;" version="1.1" viewBox="0 0 623 554" width="623px" zoomAndPan="magnify"><defs/><g><!--cluster gTools--><g id="cluster_gTools"><rect fill="none" height="97" rx="2.5" ry="2.5" style="stroke:#181818;stroke-width:1.0;" width="410" x="18" y="7"/><text fill="#000000" font-family="sans-serif" font-size="14" font-weight="bold" lengthAdjust="spacing" textLength="85" x="180.5" y="21.9951">Your Tools</text></g><!--cluster pGw--><g id="cluster_pGw"><rect fill="none" height="204" rx="2.5" ry="2.5" style="stroke:#181818;stroke-width:1.0;" width="610" x="7" y="153"/><path d="M87,153 L87,162.2969 L77,172.2969 L7,172.2969 " fill="none" style="stroke:#181818;stroke-width:1.0;"/><text fill="#000000" font-family="sans-serif" font-size="14" font-weight="bold" lengthAdjust="spacing" textLength="70" x="10" y="166.9951">CodeOrb</text></g><!--cluster pTarget--><g id="cluster_pTarget"><rect fill="none" height="97" rx="2.5" ry="2.5" style="stroke:#181818;stroke-width:1.0;" width="250" x="162" y="421"/><rect fill="none" height="10" style="stroke:#181818;stroke-width:1.0;" width="15" x="392" y="426"/><rect fill="none" height="2" style="stroke:#181818;stroke-width:1.0;" width="4" x="390" y="428"/><rect fill="none" height="2" style="stroke:#181818;stroke-width:1.0;" width="4" x="390" y="432"/><text fill="#000000" font-family="sans-serif" font-size="14" font-weight="bold" lengthAdjust="spacing" textLength="52" x="261" y="446.9951">Target</text></g><!--entity pTree--><g id="elem_pTree"><rect fill="#F1F1F1" height="46.2969" rx="2.5" ry="2.5" style="stroke:#181818;stroke-width:0.5;" width="132" x="34" y="42"/><path d="M78,42 L78,47 L71,54 L34,54 " fill="none" style="stroke:#181818;stroke-width:0.5;"/><text fill="#000000" font-family="sans-serif" font-size="14" lengthAdjust="spacing" textLength="92" x="49" y="74.9951">Process Tree</text></g><!--entity pLog--><g id="elem_pLog"><rect fill="#F1F1F1" height="46.2969" rx="2.5" ry="2.5" style="stroke:#181818;stroke-width:0.5;" width="65" x="201.5" y="42"/><path d="M223.1667,42 L223.1667,47 L216.1667,54 L201.5,54 " fill="none" style="stroke:#181818;stroke-width:0.5;"/><text fill="#000000" font-family="sans-serif" font-size="14" lengthAdjust="spacing" textLength="25" x="216.5" y="74.9951">Log</text></g><!--entity pCmd--><g id="elem_pCmd"><rect fill="#F1F1F1" height="46.2969" rx="2.5" ry="2.5" style="stroke:#181818;stroke-width:0.5;" width="111" x="301.5" y="42"/><path d="M338.5,42 L338.5,47 L331.5,54 L301.5,54 " fill="none" style="stroke:#181818;stroke-width:0.5;"/><text fill="#000000" font-family="sans-serif" font-size="14" lengthAdjust="spacing" textLength="71" x="316.5" y="74.9951">Command</text></g><!--entity pSwc--><g id="elem_pSwc"><rect fill="#F1F1F1" height="46.2969" rx="2.5" ry="2.5" style="stroke:#181818;stroke-width:0.5;" width="217" x="178.5" y="295"/><path d="M250.8333,295 L250.8333,300 L243.8333,307 L178.5,307 " fill="none" style="stroke:#181818;stroke-width:0.5;"/><text fill="#000000" font-family="sans-serif" font-size="14" lengthAdjust="spacing" textLength="177" x="193.5" y="327.9951">&#171;SingleWireScheduling()&#187;</text></g><!--entity pList--><g id="elem_pList"><rect fill="#F1F1F1" height="46.2969" rx="2.5" ry="2.5" style="stroke:#181818;stroke-width:0.5;" width="156" x="212" y="188"/><path d="M264,188 L264,193 L257,200 L212,200 " fill="none" style="stroke:#181818;stroke-width:0.5;"/><text fill="#000000" font-family="sans-serif" font-size="14" lengthAdjust="spacing" textLength="116" x="227" y="220.9951">&#171;TcpListening()&#187;</text></g><!--entity pTrans--><g id="elem_pTrans"><rect fill="#F1F1F1" height="46.2969" rx="2.5" ry="2.5" style="stroke:#181818;stroke-width:0.5;" width="154" x="23" y="188"/><path d="M74.3333,188 L74.3333,193 L67.3333,200 L23,200 " fill="none" style="stroke:#181818;stroke-width:0.5;"/><text fill="#000000" font-family="sans-serif" font-size="14" lengthAdjust="spacing" textLength="114" x="38" y="220.9951">TcpTransfering()</text></g><!--entity pCmdRemote--><g id="elem_pCmdRemote"><rect fill="#F1F1F1" height="46.2969" rx="2.5" ry="2.5" style="stroke:#181818;stroke-width:0.5;" width="197" x="403.5" y="188"/><path d="M469.1667,188 L469.1667,193 L462.1667,200 L403.5,200 " fill="none" style="stroke:#181818;stroke-width:0.5;"/><text fill="#000000" font-family="sans-serif" font-size="14" lengthAdjust="spacing" textLength="157" x="418.5" y="220.9951">RemoteCommanding()</text></g><!--entity pGather--><g id="elem_pGather"><rect fill="#F1F1F1" height="46.2969" rx="2.5" ry="2.5" style="stroke:#181818;stroke-width:0.5;" width="143" x="430.5" y="295"/><path d="M478.1667,295 L478.1667,300 L471.1667,307 L430.5,307 " fill="none" style="stroke:#181818;stroke-width:0.5;"/><text fill="#000000" font-family="sans-serif" font-size="14" lengthAdjust="spacing" textLength="103" x="445.5" y="327.9951">InfoGathering()</text></g><!--entity pSwt--><g id="elem_pSwt"><rect fill="#F1F1F1" height="46.2969" rx="2.5" ry="2.5" style="stroke:#181818;stroke-width:0.5;" width="218" x="178" y="456"/><path d="M250.6667,456 L250.6667,461 L243.6667,468 L178,468 " fill="none" style="stroke:#181818;stroke-width:0.5;"/><text fill="#000000" font-family="sans-serif" font-size="14" lengthAdjust="spacing" textLength="178" x="193" y="488.9951">&#171;SingleWireTransfering()&#187;</text></g><!--reverse link pTree to pTrans--><g id="link_pTree_pTrans"><path d="M100,94.18 C100,121.17 100,160.45 100,187.55 " fill="none" id="pTree-backto-pTrans" style="stroke:#181818;stroke-width:2.0;"/><polygon fill="#181818" points="100,88.18,96,97.18,100,93.18,104,97.18,100,88.18" style="stroke:#181818;stroke-width:2.0;"/></g><!--reverse link pLog to pTrans--><g id="link_pLog_pTrans"><path d="M209.2731,92.5729 C184.1631,119.5629 146.11,160.45 120.89,187.55 " fill="none" id="pLog-backto-pTrans" style="stroke:#181818;stroke-width:2.0;"/><polygon fill="#181818" points="213.36,88.18,204.3011,92.0447,209.9543,91.8407,210.1583,97.4939,213.36,88.18" style="stroke:#181818;stroke-width:2.0;"/></g><!--link pCmd to pCmdRemote--><g id="link_pCmd_pCmdRemote"><path d="M383.5967,92.4085 C410.7667,119.3985 447.8526,156.2222 475.1426,183.3222 " fill="none" id="pCmd-pCmdRemote" style="stroke:#181818;stroke-width:2.0;"/><polygon fill="#181818" points="379.34,88.18,382.9061,97.3606,382.8873,91.7038,388.5441,91.685,379.34,88.18" style="stroke:#181818;stroke-width:2.0;"/><polygon fill="#181818" points="479.4,187.55,475.8324,178.37,475.8521,184.0268,470.1953,184.0466,479.4,187.55" style="stroke:#181818;stroke-width:2.0;"/><text fill="#000000" font-family="sans-serif" font-size="13" lengthAdjust="spacing" textLength="39" x="426" y="133.0669">TCP/IP</text></g><!--reverse link pTrans to pList--><g id="link_pTrans_pList"><path d="M183.19,211 C194.65,211 200.1,211 211.56,211 " fill="none" id="pTrans-backto-pList" style="stroke:#181818;stroke-width:1.0;stroke-dasharray:7.0,7.0;"/><polygon fill="#181818" points="177.19,211,186.19,215,182.19,211,186.19,207,177.19,211" style="stroke:#181818;stroke-width:1.0;"/></g><!--link pList to pCmdRemote--><g id="link_pList_pCmdRemote"><path d="M368.26,211 C379.93,211 385.59,211 397.26,211 " fill="none" id="pList-to-pCmdRemote" style="stroke:#181818;stroke-width:1.0;stroke-dasharray:7.0,7.0;"/><polygon fill="#181818" points="403.26,211,394.26,207,398.26,211,394.26,215,403.26,211" style="stroke:#181818;stroke-width:1.0;"/></g><!--reverse link pTrans to pSwc--><g id="link_pTrans_pSwc"><path d="M144.4318,236.9474 C176.2418,254.8074 215.65,276.94 247.53,294.84 " fill="none" id="pTrans-backto-pSwc" style="stroke:#181818;stroke-width:2.0;"/><polygon fill="#181818" points="139.2,234.01,145.0894,241.904,143.5598,236.4579,149.006,234.9283,139.2,234.01" style="stroke:#181818;stroke-width:2.0;"/></g><!--link pCmdRemote to pSwc--><g id="link_pCmdRemote_pSwc"><path d="M451.5386,236.643 C414.9686,254.503 374.4316,274.3074 337.7716,292.2074 " fill="none" id="pCmdRemote-pSwc" style="stroke:#181818;stroke-width:2.0;"/><polygon fill="#181818" points="456.93,234.01,447.0876,234.3653,452.4372,236.2042,450.5983,241.5538,456.93,234.01" style="stroke:#181818;stroke-width:2.0;"/><polygon fill="#181818" points="332.38,294.84,342.2225,294.4856,336.873,292.6462,338.7124,287.2967,332.38,294.84" style="stroke:#181818;stroke-width:2.0;"/></g><!--reverse link pCmdRemote to pGather--><g id="link_pCmdRemote_pGather"><path d="M502,240.01 C502,257.81 502,276.77 502,294.66 " fill="none" id="pCmdRemote-backto-pGather" style="stroke:#181818;stroke-width:1.0;"/><polygon fill="#181818" points="502,234.01,498,243.01,502,239.01,506,243.01,502,234.01" style="stroke:#181818;stroke-width:1.0;"/></g><!--link pSwc to pSwt--><g id="link_pSwc_pSwt"><path d="M287,347.11 C287,377.4 287,419.5 287,449.82 " fill="none" id="pSwc-pSwt" style="stroke:#181818;stroke-width:1.0;"/><polygon fill="#181818" points="287,341.11,283,350.11,287,346.11,291,350.11,287,341.11" style="stroke:#181818;stroke-width:1.0;"/><polygon fill="#181818" points="287,455.82,291,446.82,287,450.82,283,446.82,287,455.82" style="stroke:#181818;stroke-width:1.0;"/><text fill="#000000" font-family="sans-serif" font-size="13" lengthAdjust="spacing" textLength="55" x="303" y="386.0669">COM1 or</text><text fill="#000000" font-family="sans-serif" font-size="13" lengthAdjust="spacing" textLength="85" x="288" y="401.1997">/dev/ttyACM0</text></g><!--link pSwc to pGather--><g id="link_pSwc_pGather"><path d="M401.76,318 C413.24,318 412.72,318 424.2,318 " fill="none" id="pSwc-pGather" style="stroke:#181818;stroke-width:1.0;"/><polygon fill="#181818" points="395.76,318,404.76,322,400.76,318,404.76,314,395.76,318" style="stroke:#181818;stroke-width:1.0;"/><polygon fill="#181818" points="430.2,318,421.2,314,425.2,318,421.2,322,430.2,318" style="stroke:#181818;stroke-width:1.0;"/></g><text fill="#888888" font-family="sans-serif" font-size="10" font-weight="bold" lengthAdjust="spacing" textLength="71" x="218.5" y="532.2822">Processing()</text><text fill="#888888" font-family="sans-serif" font-size="10" lengthAdjust="spacing" textLength="98" x="292.5" y="532.2822">- Gateway overview</text><text fill="#888888" font-family="sans-serif" font-size="10" lengthAdjust="spacing" textLength="167" x="221" y="543.9229">(C) DSP-Crowd Electronics GmbH</text><!--SRC=[TPFVQy8m4CUVbx_Yy6KgLBSz3bSOtN22eip267CFiRt-m3OfQRJ8sF- -IwgrCdqxxll9tVSkoIsKcrGKNF4SibIWtXS8Kkb4CgOmq5p46KBdKsuL-59cPGTu2R4DuOUncuXE4h1GCi2o15yXMgGmKIDFPLndAMYIdinpBi9QyFAG_JBMI27ErRgMnbMxqsYqJ8sfZrJXCaWmt9BlkDjptPfULa6BzODYcfOQnHbZKWr4YA-uA2DK5ZhQfrJ3l6CkDHuCjoXoNKiDEH6H77ETd1Mh4sQ-GEQ552WqzUKgHdtePkDhOvxPEysfJK6xPnWvNpf9WusWEtXw-7QE_is-hula_f_ejeQ2HtBfBOQJHOSQcQN181kuf-8semRjCzOHgHUwcfjf5R_GsH3dYDCiZndLP2odZJTlFhkdnxeImn1tGwttpzxihdC4tTFHI58r1Vt-uPdQHVRxu00HMF4zo1sgNOhLIdIz7hmi5uwdP1N2QqQVG4cH1YMCy_KR-mC0]--></g></svg>