<?xml version="1.0" encoding="us-ascii" standalone="no"?><svg xmlns="http://www.w3.org/2000/svg" xmlns:xlink="http://www.w3.org/1999/xlink" contentStyleType="text/css" height="647px" preserveAspectRatio="none" style="width:513px;height:647px;background:#FFFFFF;" version="1.1" viewBox="0 0 513 647" width="513px" zoomAndPan="magnify"><defs/><g><!--cluster gTools--><g id="cluster_gTools"><rect fill="none" height="97" rx="2.5" ry="2.5" style="stroke:#181818;stroke-width:1.0;" width="410" x="7" y="7"/><text fill="#000000" font-family="sans-serif" font-size="14" font-weight="bold" lengthAdjust="spacing" textLength="85" x="169.5" y="21.9951">Your Tools</text></g><!--cluster pGw--><g id="cluster_pGw"><rect fill="none" height="297" rx="2.5" ry="2.5" style="stroke:#181818;stroke-width:1.0;" width="465" x="42" y="153"/><path d="M240,153 L240,178.5938 L230,188.5938 L42,188.5938 " fill="none" style="stroke:#181818;stroke-width:1.0;"/><text fill="#000000" font-family="sans-serif" font-size="14" font-weight="bold" lengthAdjust="spacing" textLength="188" x="45" y="166.9951">SingleWireTransfering()</text><text fill="#000000" font-family="sans-serif" font-size="14" font-weight="bold" lengthAdjust="spacing" textLength="69" x="104.5" y="183.292">Gateway</text></g><!--cluster pCmdRemote--><g id="cluster_pCmdRemote"><rect fill="none" height="113" rx="2.5" ry="2.5" style="stroke:#181818;stroke-width:1.0;" width="239" x="236" y="220"/><path d="M420,220 L420,229.2969 L410,239.2969 L236,239.2969 " fill="none" style="stroke:#181818;stroke-width:1.0;"/><text fill="#000000" font-family="sans-serif" font-size="14" font-weight="bold" lengthAdjust="spacing" textLength="174" x="239" y="233.9951">RemoteCommanding()</text></g><!--cluster pTarget--><g id="cluster_pTarget"><rect fill="none" height="97" rx="2.5" ry="2.5" style="stroke:#181818;stroke-width:1.0;" width="250" x="54" y="514"/><rect fill="none" height="10" style="stroke:#181818;stroke-width:1.0;" width="15" x="284" y="519"/><rect fill="none" height="2" style="stroke:#181818;stroke-width:1.0;" width="4" x="282" y="521"/><rect fill="none" height="2" style="stroke:#181818;stroke-width:1.0;" width="4" x="282" y="525"/><text fill="#000000" font-family="sans-serif" font-size="14" font-weight="bold" lengthAdjust="spacing" textLength="52" x="153" y="539.9951">Target</text></g><!--entity pTree--><g id="elem_pTree"><rect fill="#F1F1F1" height="46.2969" rx="2.5" ry="2.5" style="stroke:#181818;stroke-width:0.5;" width="132" x="23" y="42"/><path d="M67,42 L67,47 L60,54 L23,54 " fill="none" style="stroke:#181818;stroke-width:0.5;"/><text fill="#000000" font-family="sans-serif" font-size="14" lengthAdjust="spacing" textLength="92" x="38" y="74.9951">Process Tree</text></g><!--entity pLog--><g id="elem_pLog"><rect fill="#F1F1F1" height="46.2969" rx="2.5" ry="2.5" style="stroke:#181818;stroke-width:0.5;" width="65" x="190.5" y="42"/><path d="M212.1667,42 L212.1667,47 L205.1667,54 L190.5,54 " fill="none" style="stroke:#181818;stroke-width:0.5;"/><text fill="#000000" font-family="sans-serif" font-size="14" lengthAdjust="spacing" textLength="25" x="205.5" y="74.9951">Log</text></g><!--entity pCmd--><g id="elem_pCmd"><rect fill="#F1F1F1" height="46.2969" rx="2.5" ry="2.5" style="stroke:#181818;stroke-width:0.5;" width="111" x="290.5" y="42"/><path d="M327.5,42 L327.5,47 L320.5,54 L290.5,54 " fill="none" style="stroke:#181818;stroke-width:0.5;"/><text fill="#000000" font-family="sans-serif" font-size="14" lengthAdjust="spacing" textLength="71" x="305.5" y="74.9951">Command</text></g><!--entity pSwc--><g id="elem_pSwc"><rect fill="#F1F1F1" height="46.2969" rx="2.5" ry="2.5" style="stroke:#181818;stroke-width:0.5;" width="214" x="72" y="388"/><path d="M143.3333,388 L143.3333,393 L136.3333,400 L72,400 " fill="none" style="stroke:#181818;stroke-width:0.5;"/><text fill="#000000" font-family="sans-serif" font-size="14" lengthAdjust="spacing" textLength="174" x="87" y="420.9951">&#171;SingleWireControlling()&#187;</text></g><!--entity pTcp--><g id="elem_pTcp"><rect fill="#F1F1F1" height="46.2969" rx="2.5" ry="2.5" style="stroke:#181818;stroke-width:0.5;" width="156" x="328" y="388"/><path d="M380,388 L380,393 L373,400 L328,400 " fill="none" style="stroke:#181818;stroke-width:0.5;"/><text fill="#000000" font-family="sans-serif" font-size="14" lengthAdjust="spacing" textLength="116" x="343" y="420.9951">&#171;TcpListening()&#187;</text></g><!--entity pTrans--><g id="elem_pTrans"><rect fill="#F1F1F1" height="46.2969" rx="2.5" ry="2.5" style="stroke:#181818;stroke-width:0.5;" width="154" x="58" y="263"/><path d="M109.3333,263 L109.3333,268 L102.3333,275 L58,275 " fill="none" style="stroke:#181818;stroke-width:0.5;"/><text fill="#000000" font-family="sans-serif" font-size="14" lengthAdjust="spacing" textLength="114" x="73" y="295.9951">TcpTransfering()</text></g><!--entity pTrans2--><g id="elem_pTrans2"><rect fill="#F1F1F1" height="46.2969" rx="2.5" ry="2.5" style="stroke:#181818;stroke-width:0.5;" width="172" x="260" y="263"/><path d="M317.3333,263 L317.3333,268 L310.3333,275 L260,275 " fill="none" style="stroke:#181818;stroke-width:0.5;"/><text fill="#000000" font-family="sans-serif" font-size="14" lengthAdjust="spacing" textLength="132" x="275" y="295.9951">&#171;TcpTransfering()&#187;</text></g><!--entity pSwt--><g id="elem_pSwt"><rect fill="#F1F1F1" height="46.2969" rx="2.5" ry="2.5" style="stroke:#181818;stroke-width:0.5;" width="218" x="70" y="549"/><path d="M142.6667,549 L142.6667,554 L135.6667,561 L70,561 " fill="none" style="stroke:#181818;stroke-width:0.5;"/><text fill="#000000" font-family="sans-serif" font-size="14" lengthAdjust="spacing" textLength="178" x="85" y="581.9951">&#171;SingleWireTransfering()&#187;</text></g><!--reverse link pTree to pTrans--><g id="link_pTree_pTrans"><path d="M94.8937,94.0718 C103.7137,136.0518 121.5,220.72 130.32,262.74 " fill="none" id="pTree-backto-pTrans" style="stroke:#181818;stroke-width:1.0;"/><polygon fill="#181818" points="93.66,88.2,91.596,97.8301,94.6881,93.0932,99.425,96.1853,93.66,88.2" style="stroke:#181818;stroke-width:1.0;"/></g><!--reverse link pLog to pTrans--><g id="link_pLog_pTrans"><path d="M211.8427,93.7673 C194.9727,135.7473 160.83,220.72 143.95,262.74 " fill="none" id="pLog-backto-pTrans" style="stroke:#181818;stroke-width:1.0;"/><polygon fill="#181818" points="214.08,88.2,207.0126,95.0594,212.2156,92.8394,214.4356,98.0424,214.08,88.2" style="stroke:#181818;stroke-width:1.0;"/></g><!--link pCmd to pTrans2--><g id="link_pCmd_pTrans2"><path d="M346,94.2 C346,136.18 346,214.72 346,256.74 " fill="none" id="pCmd-pTrans2" style="stroke:#181818;stroke-width:1.0;"/><polygon fill="#181818" points="346,88.2,342,97.2,346,93.2,350,97.2,346,88.2" style="stroke:#181818;stroke-width:1.0;"/><polygon fill="#181818" points="346,262.74,350,253.74,346,257.74,342,253.74,346,262.74" style="stroke:#181818;stroke-width:1.0;"/><text fill="#000000" font-family="sans-serif" font-size="13" lengthAdjust="spacing" textLength="39" x="347" y="133.0669">TCP/IP</text></g><!--reverse link pTrans to pSwc--><g id="link_pTrans_pSwc"><path d="M144.9893,314.92 C152.9593,337.22 163.14,365.66 171.09,387.89 " fill="none" id="pTrans-backto-pSwc" style="stroke:#181818;stroke-width:1.0;"/><polygon fill="#181818" points="142.97,309.27,142.2323,319.0912,144.6528,313.9783,149.7656,316.3988,142.97,309.27" style="stroke:#181818;stroke-width:1.0;"/></g><!--link pTrans2 to pSwc--><g id="link_pTrans2_pSwc"><path d="M310.9293,312.8288 C280.6593,335.1288 244.0309,362.1016 213.8509,384.3316 " fill="none" id="pTrans2-pSwc" style="stroke:#181818;stroke-width:1.0;"/><polygon fill="#181818" points="315.76,309.27,306.1415,311.3877,311.7345,312.2356,310.8865,317.8286,315.76,309.27" style="stroke:#181818;stroke-width:1.0;"/><polygon fill="#181818" points="209.02,387.89,218.6387,385.7731,213.0458,384.9247,213.8942,379.3318,209.02,387.89" style="stroke:#181818;stroke-width:1.0;"/></g><!--reverse link pTrans to pTcp--><g id="link_pTrans_pTcp"><path d="M175.7276,312.2026 C196.6676,324.7426 218.77,337.16 244,349 C275.02,363.55 310.53,377.24 340.39,387.95 " fill="none" id="pTrans-backto-pTcp" style="stroke:#181818;stroke-width:1.0;stroke-dasharray:7.0,7.0;"/><polygon fill="#181818" points="170.58,309.12,176.2462,317.1757,174.8696,311.6889,180.3564,310.3122,170.58,309.12" style="stroke:#181818;stroke-width:1.0;"/></g><!--reverse link pCmdRemote to pTcp--><g id="link_pCmdRemote_pTcp"><path d="M452.5374,338.8199 C452.46,339.0328 454.308,333.9228 454.2299,334.1355 C453.6051,335.8367 452.9578,337.5317 452.2879,339.2101 C450.9483,342.5669 449.5188,345.8575 448,349 C441.4,362.66 431.96,376.69 423.7,387.84 " fill="none" id="pCmdRemote-backto-pTcp" style="stroke:#181818;stroke-width:1.0;stroke-dasharray:7.0,7.0;"/><polygon fill="#181818" points="454.579,333.178,447.7552,340.2798,452.8776,337.8796,455.2779,343.002,454.579,333.178" style="stroke:#181818;stroke-width:1.0;"/></g><!--link pSwc to pSwt--><g id="link_pSwc_pSwt"><path d="M179,440.11 C179,470.4 179,512.5 179,542.82 " fill="none" id="pSwc-pSwt" style="stroke:#181818;stroke-width:1.0;"/><polygon fill="#181818" points="179,434.11,175,443.11,179,439.11,183,443.11,179,434.11" style="stroke:#181818;stroke-width:1.0;"/><polygon fill="#181818" points="179,548.82,183,539.82,179,543.82,175,539.82,179,548.82" style="stroke:#181818;stroke-width:1.0;"/><text fill="#000000" font-family="sans-serif" font-size="13" lengthAdjust="spacing" textLength="55" x="195" y="479.0669">COM1 or</text><text fill="#000000" font-family="sans-serif" font-size="13" lengthAdjust="spacing" textLength="85" x="180" y="494.1997">/dev/ttyACM0</text></g><text fill="#888888" font-family="sans-serif" font-size="10" font-weight="bold" lengthAdjust="spacing" textLength="71" x="163.5" y="625.2822">Processing()</text><text fill="#888888" font-family="sans-serif" font-size="10" lengthAdjust="spacing" textLength="98" x="237.5" y="625.2822">- Gateway overview</text><text fill="#888888" font-family="sans-serif" font-size="10" lengthAdjust="spacing" textLength="167" x="166" y="636.9229">(C) DSP-Crowd Electronics GmbH</text><!--SRC=[TL9DIyD043rtVyNGYxMGLZrAAKYKAhGOJ424NjPa6eF9JjYi3KNwtvtD9Z41lSs-UM_VV5r0zPcfKcfPG9ufDASIWRJv824qnaQgD4UOlj6NXeWehwOWAqYR4Bw5c1nOoOH0KunL1P56R2YbZVhqbbA7Sj23FXM5L8bB-4KYpaAqgJ2plg-PnaXBLHrGCp2xtAkDD5ZBazDiwc49gzMloYTbDELvergl7Jsium4vYijjLXbK8mwZFOVZaNlN5qCzvmKBCjXsCc1nEox55Kv6fgClUriBteZ9sSuWfg8aXSfm2LAdQ5fE4__NyP_VXhMn7pQxW9NdTTNRDOpUNAvzhxjAu9Qz_M3v54mREMEERsVOSPp08ZrbiN0Z7FJVOy9IUv6n5lxpxfglRQ-M2HwNnfpk_DqLEnw8bHhcy_QicgRcS_2WtJ_G4VKnmtglPlubt8U1vskg4tZ8-MWrgIokO5EyFueV]--></g></svg>