<?xml version="1.0" encoding="us-ascii" standalone="no"?><svg xmlns="http://www.w3.org/2000/svg" xmlns:xlink="http://www.w3.org/1999/xlink" contentStyleType="text/css" height="631px" preserveAspectRatio="none" style="width:513px;height:631px;background:#FFFFFF;" version="1.1" viewBox="0 0 513 631" width="513px" zoomAndPan="magnify"><defs/><g><!--cluster gTools--><g id="cluster_gTools"><rect fill="none" height="97" rx="2.5" ry="2.5" style="stroke:#181818;stroke-width:1.0;" width="410" x="7" y="7"/><text fill="#000000" font-family="sans-serif" font-size="14" font-weight="bold" lengthAdjust="spacing" textLength="85" x="169.5" y="21.9951">Your Tools</text></g><!--cluster pGw--><g id="cluster_pGw"><rect fill="none" height="281" rx="2.5" ry="2.5" style="stroke:#181818;stroke-width:1.0;" width="465" x="42" y="153"/><path d="M122,153 L122,162.2969 L112,172.2969 L42,172.2969 " fill="none" style="stroke:#181818;stroke-width:1.0;"/><text fill="#000000" font-family="sans-serif" font-size="14" font-weight="bold" lengthAdjust="spacing" textLength="70" x="45" y="166.9951">CodeOrb</text></g><!--cluster pCmdRemote--><g id="cluster_pCmdRemote"><rect fill="none" height="113" rx="2.5" ry="2.5" style="stroke:#181818;stroke-width:1.0;" width="239" x="236" y="204"/><path d="M420,204 L420,213.2969 L410,223.2969 L236,223.2969 " fill="none" style="stroke:#181818;stroke-width:1.0;"/><text fill="#000000" font-family="sans-serif" font-size="14" font-weight="bold" lengthAdjust="spacing" textLength="174" x="239" y="217.9951">RemoteCommanding()</text></g><!--cluster pTarget--><g id="cluster_pTarget"><rect fill="none" height="97" rx="2.5" ry="2.5" style="stroke:#181818;stroke-width:1.0;" width="250" x="54" y="498"/><rect fill="none" height="10" style="stroke:#181818;stroke-width:1.0;" width="15" x="284" y="503"/><rect fill="none" height="2" style="stroke:#181818;stroke-width:1.0;" width="4" x="282" y="505"/><rect fill="none" height="2" style="stroke:#181818;stroke-width:1.0;" width="4" x="282" y="509"/><text fill="#000000" font-family="sans-serif" font-size="14" font-weight="bold" lengthAdjust="spacing" textLength="52" x="153" y="523.9951">Target</text></g><!--entity pTree--><g id="elem_pTree"><rect fill="#F1F1F1" height="46.2969" rx="2.5" ry="2.5" style="stroke:#181818;stroke-width:0.5;" width="132" x="23" y="42"/><path d="M67,42 L67,47 L60,54 L23,54 " fill="none" style="stroke:#181818;stroke-width:0.5;"/><text fill="#000000" font-family="sans-serif" font-size="14" lengthAdjust="spacing" textLength="92" x="38" y="74.9951">Process Tree</text></g><!--entity pLog--><g id="elem_pLog"><rect fill="#F1F1F1" height="46.2969" rx="2.5" ry="2.5" style="stroke:#181818;stroke-width:0.5;" width="65" x="190.5" y="42"/><path d="M212.1667,42 L212.1667,47 L205.1667,54 L190.5,54 " fill="none" style="stroke:#181818;stroke-width:0.5;"/><text fill="#000000" font-family="sans-serif" font-size="14" lengthAdjust="spacing" textLength="25" x="205.5" y="74.9951">Log</text></g><!--entity pCmd--><g id="elem_pCmd"><rect fill="#F1F1F1" height="46.2969" rx="2.5" ry="2.5" style="stroke:#181818;stroke-width:0.5;" width="111" x="290.5" y="42"/><path d="M327.5,42 L327.5,47 L320.5,54 L290.5,54 " fill="none" style="stroke:#181818;stroke-width:0.5;"/><text fill="#000000" font-family="sans-serif" font-size="14" lengthAdjust="spacing" textLength="71" x="305.5" y="74.9951">Command</text></g><!--entity pSwc--><g id="elem_pSwc"><rect fill="#F1F1F1" height="46.2969" rx="2.5" ry="2.5" style="stroke:#181818;stroke-width:0.5;" width="214" x="72" y="372"/><path d="M143.3333,372 L143.3333,377 L136.3333,384 L72,384 " fill="none" style="stroke:#181818;stroke-width:0.5;"/><text fill="#000000" font-family="sans-serif" font-size="14" lengthAdjust="spacing" textLength="174" x="87" y="404.9951">&#171;SingleWireControlling()&#187;</text></g><!--entity pTcp--><g id="elem_pTcp"><rect fill="#F1F1F1" height="46.2969" rx="2.5" ry="2.5" style="stroke:#181818;stroke-width:0.5;" width="156" x="328" y="372"/><path d="M380,372 L380,377 L373,384 L328,384 " fill="none" style="stroke:#181818;stroke-width:0.5;"/><text fill="#000000" font-family="sans-serif" font-size="14" lengthAdjust="spacing" textLength="116" x="343" y="404.9951">&#171;TcpListening()&#187;</text></g><!--entity pTrans--><g id="elem_pTrans"><rect fill="#F1F1F1" height="46.2969" rx="2.5" ry="2.5" style="stroke:#181818;stroke-width:0.5;" width="154" x="58" y="247"/><path d="M109.3333,247 L109.3333,252 L102.3333,259 L58,259 " fill="none" style="stroke:#181818;stroke-width:0.5;"/><text fill="#000000" font-family="sans-serif" font-size="14" lengthAdjust="spacing" textLength="114" x="73" y="279.9951">TcpTransfering()</text></g><!--entity pTrans2--><g id="elem_pTrans2"><rect fill="#F1F1F1" height="46.2969" rx="2.5" ry="2.5" style="stroke:#181818;stroke-width:0.5;" width="172" x="260" y="247"/><path d="M317.3333,247 L317.3333,252 L310.3333,259 L260,259 " fill="none" style="stroke:#181818;stroke-width:0.5;"/><text fill="#000000" font-family="sans-serif" font-size="14" lengthAdjust="spacing" textLength="132" x="275" y="279.9951">&#171;TcpTransfering()&#187;</text></g><!--entity pSwt--><g id="elem_pSwt"><rect fill="#F1F1F1" height="46.2969" rx="2.5" ry="2.5" style="stroke:#181818;stroke-width:0.5;" width="218" x="70" y="533"/><path d="M142.6667,533 L142.6667,538 L135.6667,545 L70,545 " fill="none" style="stroke:#181818;stroke-width:0.5;"/><text fill="#000000" font-family="sans-serif" font-size="14" lengthAdjust="spacing" textLength="178" x="85" y="565.9951">&#171;SingleWireTransfering()&#187;</text></g><!--reverse link pTree to pTrans--><g id="link_pTree_pTrans"><path d="M95.3362,93.9616 C104.1862,133.0116 121.15,207.89 130,246.92 " fill="none" id="pTree-backto-pTrans" style="stroke:#181818;stroke-width:1.0;"/><polygon fill="#181818" points="94.01,88.11,92.0982,97.7715,95.1151,92.9863,99.9003,96.0033,94.01,88.11" style="stroke:#181818;stroke-width:1.0;"/></g><!--reverse link pLog to pTrans--><g id="link_pLog_pTrans"><path d="M211.0246,93.6154 C194.1046,132.6654 161.49,207.89 144.57,246.92 " fill="none" id="pLog-backto-pTrans" style="stroke:#181818;stroke-width:1.0;"/><polygon fill="#181818" points="213.41,88.11,206.1616,94.7778,211.4221,92.6978,213.5021,97.9584,213.41,88.11" style="stroke:#181818;stroke-width:1.0;"/></g><!--link pCmd to pTrans2--><g id="link_pCmd_pTrans2"><path d="M346,94.11 C346,133.16 346,201.89 346,240.92 " fill="none" id="pCmd-pTrans2" style="stroke:#181818;stroke-width:1.0;"/><polygon fill="#181818" points="346,88.11,342,97.11,346,93.11,350,97.11,346,88.11" style="stroke:#181818;stroke-width:1.0;"/><polygon fill="#181818" points="346,246.92,350,237.92,346,241.92,342,237.92,346,246.92" style="stroke:#181818;stroke-width:1.0;"/><text fill="#000000" font-family="sans-serif" font-size="13" lengthAdjust="spacing" textLength="39" x="347" y="133.0669">TCP/IP</text></g><!--reverse link pTrans to pSwc--><g id="link_pTrans_pSwc"><path d="M144.9893,298.92 C152.9593,321.22 163.14,349.66 171.09,371.89 " fill="none" id="pTrans-backto-pSwc" style="stroke:#181818;stroke-width:1.0;"/><polygon fill="#181818" points="142.97,293.27,142.2323,303.0912,144.6528,297.9783,149.7656,300.3988,142.97,293.27" style="stroke:#181818;stroke-width:1.0;"/></g><!--link pTrans2 to pSwc--><g id="link_pTrans2_pSwc"><path d="M310.9293,296.8288 C280.6593,319.1288 244.0309,346.1016 213.8509,368.3316 " fill="none" id="pTrans2-pSwc" style="stroke:#181818;stroke-width:1.0;"/><polygon fill="#181818" points="315.76,293.27,306.1415,295.3877,311.7345,296.2356,310.8865,301.8286,315.76,293.27" style="stroke:#181818;stroke-width:1.0;"/><polygon fill="#181818" points="209.02,371.89,218.6387,369.7731,213.0458,368.9247,213.8942,363.3318,209.02,371.89" style="stroke:#181818;stroke-width:1.0;"/></g><!--reverse link pTrans to pTcp--><g id="link_pTrans_pTcp"><path d="M175.7276,296.2026 C196.6676,308.7426 218.77,321.16 244,333 C275.02,347.55 310.53,361.24 340.39,371.95 " fill="none" id="pTrans-backto-pTcp" style="stroke:#181818;stroke-width:1.0;stroke-dasharray:7.0,7.0;"/><polygon fill="#181818" points="170.58,293.12,176.2462,301.1757,174.8696,295.6889,180.3564,294.3122,170.58,293.12" style="stroke:#181818;stroke-width:1.0;"/></g><!--reverse link pCmdRemote to pTcp--><g id="link_pCmdRemote_pTcp"><path d="M452.5374,322.8199 C452.46,323.0328 454.308,317.9228 454.2299,318.1355 C453.6051,319.8367 452.9578,321.5317 452.2879,323.2101 C450.9483,326.5669 449.5188,329.8575 448,333 C441.4,346.66 431.96,360.69 423.7,371.84 " fill="none" id="pCmdRemote-backto-pTcp" style="stroke:#181818;stroke-width:1.0;stroke-dasharray:7.0,7.0;"/><polygon fill="#181818" points="454.579,317.178,447.7552,324.2798,452.8776,321.8796,455.2779,327.002,454.579,317.178" style="stroke:#181818;stroke-width:1.0;"/></g><!--link pSwc to pSwt--><g id="link_pSwc_pSwt"><path d="M179,424.11 C179,454.4 179,496.5 179,526.82 " fill="none" id="pSwc-pSwt" style="stroke:#181818;stroke-width:1.0;"/><polygon fill="#181818" points="179,418.11,175,427.11,179,423.11,183,427.11,179,418.11" style="stroke:#181818;stroke-width:1.0;"/><polygon fill="#181818" points="179,532.82,183,523.82,179,527.82,175,523.82,179,532.82" style="stroke:#181818;stroke-width:1.0;"/><text fill="#000000" font-family="sans-serif" font-size="13" lengthAdjust="spacing" textLength="55" x="195" y="463.0669">COM1 or</text><text fill="#000000" font-family="sans-serif" font-size="13" lengthAdjust="spacing" textLength="85" x="180" y="478.1997">/dev/ttyACM0</text></g><text fill="#888888" font-family="sans-serif" font-size="10" font-weight="bold" lengthAdjust="spacing" textLength="71" x="163.5" y="609.2822">Processing()</text><text fill="#888888" font-family="sans-serif" font-size="10" lengthAdjust="spacing" textLength="98" x="237.5" y="609.2822">- Gateway overview</text><text fill="#888888" font-family="sans-serif" font-size="10" lengthAdjust="spacing" textLength="167" x="166" y="620.9229">(C) DSP-Crowd Electronics GmbH</text><!--SRC=[TP9HQy903CUVlKyHV9aArMsFGuJH3JTGB6jX37mvszYLjPTolLba-DsNQ-tHmlQM- -UNopyXDr1zPQgKMXQGPmhDkKGWRJv928snaIhD4SOVzAqX8ighCSWAqYQ47o56Hwva8D0KOrL1f14RfBIHIsyeRLKEdEXJKKYLj0c_ICH529TASASFRMfTzpijbs5cJRrd6drIHbFEnjF9TBLgyR2EUt0KbvkiCgW63AkEuJZIKbL7r0tJsMV9CMzOaC6huHx5hjiKEnmDcWw-T6sjU2z65pjgJ4L92fLX2rAdQAvC4_ytyP_VXhMn7pOhXwNdTUxjjWTljclVgyu9F71lFrYy1kEcdBMMjplicBR0AWwPpziLzkPtch2eApAsXR_Rtl5HxTKYmTF2cFEZlxtbZaVYIWspsVLwcg5cC_1WBGtMyWnqGdtAiDwhYJ-5fp3mV4rr0iyvtwOcbSKLh8l3Y_W5]--></g></svg>