<?xml version="1.0" encoding="us-ascii" standalone="no"?><svg xmlns="http://www.w3.org/2000/svg" xmlns:xlink="http://www.w3.org/1999/xlink" contentStyleType="text/css" height="731px" preserveAspectRatio="none" style="width:430px;height:731px;background:#FFFFFF;" version="1.1" viewBox="0 0 430 731" width="430px" zoomAndPan="magnify"><defs/><g><!--cluster pGw--><g id="cluster_pGw"><rect fill="none" height="487" rx="2.5" ry="2.5" style="stroke:#181818;stroke-width:1.0;" width="417" x="7" y="7"/><path d="M199,7 L199,16.2969 L189,26.2969 L7,26.2969 " fill="none" style="stroke:#181818;stroke-width:1.0;"/><text fill="#000000" font-family="sans-serif" font-size="14" font-weight="bold" lengthAdjust="spacing" textLength="182" x="10" y="20.9951">SingleWireControlling()</text></g><!--cluster pCtrl--><g id="cluster_pCtrl"><rect fill="none" height="97" rx="2.5" ry="2.5" style="stroke:#181818;stroke-width:1.0;" width="265" x="31" y="50"/><text fill="#000000" font-family="sans-serif" font-size="14" font-weight="bold" lengthAdjust="spacing" textLength="98" x="114.5" y="64.9951">Controlling()</text></g><!--cluster pTrans--><g id="cluster_pTrans"><rect fill="none" height="97" rx="2.5" ry="2.5" style="stroke:#181818;stroke-width:1.0;" width="340" x="38" y="171"/><text fill="#000000" font-family="sans-serif" font-size="14" font-weight="bold" lengthAdjust="spacing" textLength="104" x="156" y="185.9951">Transfering()</text></g><!--cluster sBuf--><g id="cluster_sBuf"><rect fill="none" height="178" rx="2.5" ry="2.5" style="stroke:#181818;stroke-width:1.0;" width="369" x="31" y="292"/><text fill="#000000" font-family="sans-serif" font-size="14" font-weight="bold" lengthAdjust="spacing" textLength="58" x="186.5" y="306.9951">Buffers</text></g><!--cluster sBufVirt--><g id="cluster_sBufVirt"><path d="M140,345 C140,335 212.5,335 212.5,335 C212.5,335 285,335 285,345 L285,436 C285,446 212.5,446 212.5,446 C212.5,446 140,446 140,436 L140,345 " fill="none" style="stroke:#181818;stroke-width:1.0;"/><path d="M140,345 C140,355 212.5,355 212.5,355 C212.5,355 285,355 285,345 " fill="none" style="stroke:#181818;stroke-width:1.0;"/><text fill="#000000" font-family="sans-serif" font-size="14" font-weight="bold" lengthAdjust="spacing" textLength="51" x="187" y="369.9951">Virtual</text></g><!--entity pAuto--><g id="elem_pAuto"><rect fill="#F1F1F1" height="46.2969" rx="2.5" ry="2.5" style="stroke:#181818;stroke-width:0.5;" width="109" x="47.5" y="85"/><path d="M83.8333,85 L83.8333,90 L76.8333,97 L47.5,97 " fill="none" style="stroke:#181818;stroke-width:0.5;"/><text fill="#000000" font-family="sans-serif" font-size="14" lengthAdjust="spacing" textLength="69" x="62.5" y="117.9951">Automatic</text></g><!--entity pManual--><g id="elem_pManual"><rect fill="#F1F1F1" height="46.2969" rx="2.5" ry="2.5" style="stroke:#181818;stroke-width:0.5;" width="89" x="191.5" y="85"/><path d="M221.1667,85 L221.1667,90 L214.1667,97 L191.5,97 " fill="none" style="stroke:#181818;stroke-width:0.5;"/><text fill="#000000" font-family="sans-serif" font-size="14" lengthAdjust="spacing" textLength="49" x="206.5" y="117.9951">Manual</text></g><!--entity pRcv--><g id="elem_pRcv"><rect fill="#F1F1F1" height="46.2969" rx="2.5" ry="2.5" style="stroke:#181818;stroke-width:0.5;" width="70" x="171" y="206"/><path d="M194.3333,206 L194.3333,211 L187.3333,218 L171,218 " fill="none" style="stroke:#181818;stroke-width:0.5;"/><text fill="#000000" font-family="sans-serif" font-size="14" lengthAdjust="spacing" textLength="30" x="186" y="238.9951">rcv()</text></g><!--entity pSend--><g id="elem_pSend"><rect fill="#F1F1F1" height="46.2969" rx="2.5" ry="2.5" style="stroke:#181818;stroke-width:0.5;" width="85" x="276.5" y="206"/><path d="M304.8333,206 L304.8333,211 L297.8333,218 L276.5,218 " fill="none" style="stroke:#181818;stroke-width:0.5;"/><text fill="#000000" font-family="sans-serif" font-size="14" lengthAdjust="spacing" textLength="45" x="291.5" y="238.9951">send()</text></g><!--entity pRead--><g id="elem_pRead"><rect fill="#F1F1F1" height="46.2969" rx="2.5" ry="2.5" style="stroke:#181818;stroke-width:0.5;" width="81" x="54.5" y="206"/><path d="M81.5,206 L81.5,211 L74.5,218 L54.5,218 " fill="none" style="stroke:#181818;stroke-width:0.5;"/><text fill="#000000" font-family="sans-serif" font-size="14" lengthAdjust="spacing" textLength="41" x="69.5" y="238.9951">read()</text></g><!--entity sBufUartTmit--><g id="elem_sBufUartTmit"><path d="M304,395 C304,385 344,385 344,385 C344,385 384,385 384,395 L384,420.2969 C384,430.2969 344,430.2969 344,430.2969 C344,430.2969 304,430.2969 304,420.2969 L304,395 " fill="#F1F1F1" style="stroke:#181818;stroke-width:0.5;"/><path d="M304,395 C304,405 344,405 344,405 C344,405 384,405 384,395 " fill="none" style="stroke:#181818;stroke-width:0.5;"/><text fill="#000000" font-family="sans-serif" font-size="14" lengthAdjust="spacing" textLength="60" x="314" y="421.9951">Transmit</text></g><!--entity sBufUartRcv--><g id="elem_sBufUartRcv"><path d="M46.5,395 C46.5,385 84,385 84,385 C84,385 121.5,385 121.5,395 L121.5,420.2969 C121.5,430.2969 84,430.2969 84,430.2969 C84,430.2969 46.5,430.2969 46.5,420.2969 L46.5,395 " fill="#F1F1F1" style="stroke:#181818;stroke-width:0.5;"/><path d="M46.5,395 C46.5,405 84,405 84,405 C84,405 121.5,405 121.5,395 " fill="none" style="stroke:#181818;stroke-width:0.5;"/><text fill="#000000" font-family="sans-serif" font-size="14" lengthAdjust="spacing" textLength="55" x="56.5" y="421.9951">Receive</text></g><!--entity sTx--><g id="elem_sTx"><path d="M231,395 C231,385 250,385 250,385 C250,385 269,385 269,395 L269,420.2969 C269,430.2969 250,430.2969 250,430.2969 C250,430.2969 231,430.2969 231,420.2969 L231,395 " fill="#F1F1F1" style="stroke:#181818;stroke-width:0.5;"/><path d="M231,395 C231,405 250,405 250,405 C250,405 269,405 269,395 " fill="none" style="stroke:#181818;stroke-width:0.5;"/><text fill="#000000" font-family="sans-serif" font-size="14" lengthAdjust="spacing" textLength="18" x="241" y="421.9951">TX</text></g><!--entity sRx--><g id="elem_sRx"><path d="M156.5,395 C156.5,385 176,385 176,385 C176,385 195.5,385 195.5,395 L195.5,420.2969 C195.5,430.2969 176,430.2969 176,430.2969 C176,430.2969 156.5,430.2969 156.5,420.2969 L156.5,395 " fill="#F1F1F1" style="stroke:#181818;stroke-width:0.5;"/><path d="M156.5,395 C156.5,405 176,405 176,405 C176,405 195.5,405 195.5,395 " fill="none" style="stroke:#181818;stroke-width:0.5;"/><text fill="#000000" font-family="sans-serif" font-size="14" lengthAdjust="spacing" textLength="19" x="166.5" y="421.9951">RX</text></g><!--entity pSwt--><g id="elem_pSwt"><rect fill="#F1F1F1" height="46.2969" rx="2.5" ry="2.5" style="stroke:#181818;stroke-width:0.5;" width="200" x="113" y="649"/><path d="M179.6667,649 L179.6667,654 L172.6667,661 L113,661 " fill="none" style="stroke:#181818;stroke-width:0.5;"/><text fill="#000000" font-family="sans-serif" font-size="14" lengthAdjust="spacing" textLength="160" x="128" y="681.9951">SingleWireTransfering()</text></g><!--entity pLineCtt--><g id="elem_pLineCtt"><rect fill="#F1F1F1" height="78.8906" rx="2.5" ry="2.5" style="stroke:#181818;stroke-width:0.5;" width="125" x="226.5" y="510"/><rect fill="#F1F1F1" height="10" style="stroke:#181818;stroke-width:0.5;" width="15" x="331.5" y="515"/><rect fill="#F1F1F1" height="2" style="stroke:#181818;stroke-width:0.5;" width="4" x="329.5" y="517"/><rect fill="#F1F1F1" height="2" style="stroke:#181818;stroke-width:0.5;" width="4" x="329.5" y="521"/><text fill="#000000" font-family="sans-serif" font-size="14" lengthAdjust="spacing" textLength="28" x="241.5" y="542.9951">Line</text><text fill="#000000" font-family="sans-serif" font-size="14" lengthAdjust="spacing" textLength="85" x="241.5" y="559.292">Controller to</text><text fill="#000000" font-family="sans-serif" font-size="14" lengthAdjust="spacing" textLength="45" x="241.5" y="575.5889">Target</text></g><!--entity pLineTtc--><g id="elem_pLineTtc"><rect fill="#F1F1F1" height="78.8906" rx="2.5" ry="2.5" style="stroke:#181818;stroke-width:0.5;" width="107" x="84.5" y="510"/><rect fill="#F1F1F1" height="10" style="stroke:#181818;stroke-width:0.5;" width="15" x="171.5" y="515"/><rect fill="#F1F1F1" height="2" style="stroke:#181818;stroke-width:0.5;" width="4" x="169.5" y="517"/><rect fill="#F1F1F1" height="2" style="stroke:#181818;stroke-width:0.5;" width="4" x="169.5" y="521"/><text fill="#000000" font-family="sans-serif" font-size="14" lengthAdjust="spacing" textLength="28" x="99.5" y="542.9951">Line</text><text fill="#000000" font-family="sans-serif" font-size="14" lengthAdjust="spacing" textLength="63" x="99.5" y="559.292">Target to</text><text fill="#000000" font-family="sans-serif" font-size="14" lengthAdjust="spacing" textLength="67" x="99.5" y="575.5889">Controller</text></g><!--link sTx to sRx--><g id="link_sTx_sRx"><path d="M230.89,407.5 C219.15,407.5 213.4,407.5 201.66,407.5 " fill="none" id="sTx-to-sRx" style="stroke:#181818;stroke-width:1.0;stroke-dasharray:7.0,7.0;"/><polygon fill="#181818" points="195.66,407.5,204.66,411.5,200.66,407.5,204.66,403.5,195.66,407.5" style="stroke:#181818;stroke-width:1.0;"/></g><!--link pAuto to pSend--><g id="link_pAuto_pSend"><path d="M129.8,131.16 C142.54,140.12 158.29,149.6 174,155 C209.88,167.34 224.99,146.17 259,163 C278.27,172.54 290.9089,186.2074 301.5789,201.0574 " fill="none" id="pAuto-to-pSend" style="stroke:#181818;stroke-width:1.0;"/><polygon fill="#181818" points="305.08,205.93,303.0768,196.287,302.1624,201.8695,296.58,200.9551,305.08,205.93" style="stroke:#181818;stroke-width:1.0;"/></g><!--reverse link pAuto to pRead--><g id="link_pAuto_pRead"><path d="M100.3475,137.0896 C99.0975,158.3296 97.57,184.28 96.32,205.61 " fill="none" id="pAuto-backto-pRead" style="stroke:#181818;stroke-width:1.0;"/><polygon fill="#181818" points="100.7,131.1,96.1782,139.8495,100.4063,136.0914,104.1643,140.3195,100.7,131.1" style="stroke:#181818;stroke-width:1.0;"/></g><!--link pManual to pSend--><g id="link_pManual_pSend"><path d="M251.42,131.1 C266.23,152.34 285.0671,179.3591 299.9471,200.6891 " fill="none" id="pManual-to-pSend" style="stroke:#181818;stroke-width:1.0;"/><polygon fill="#181818" points="303.38,205.61,301.5113,195.94,300.5193,201.5092,294.9501,200.5172,303.38,205.61" style="stroke:#181818;stroke-width:1.0;"/></g><!--link pManual to pRcv--><g id="link_pManual_pRcv"><path d="M230.43,131.1 C225.07,152.34 218.4874,178.4622 213.1074,199.7922 " fill="none" id="pManual-to-pRcv" style="stroke:#181818;stroke-width:1.0;"/><polygon fill="#181818" points="211.64,205.61,217.7196,197.8616,212.8628,200.7618,209.9626,195.905,211.64,205.61" style="stroke:#181818;stroke-width:1.0;"/></g><!--reverse link pManual to pRead--><g id="link_pManual_pRead"><path d="M204.4963,134.8609 C193.9263,143.0009 186.17,148.2 174,155 C165.64,159.67 161.86,157.54 154,163 C137.23,174.65 121.85,191.91 111,205.72 " fill="none" id="pManual-backto-pRead" style="stroke:#181818;stroke-width:1.0;"/><polygon fill="#181818" points="209.25,131.2,199.6788,133.5222,205.2886,134.2507,204.56,139.8605,209.25,131.2" style="stroke:#181818;stroke-width:1.0;"/></g><!--link pSend to sBufUartTmit--><g id="link_pSend_sBufUartTmit"><path d="M322.17,252.35 C327,286.49 335.3289,345.2492 340.0989,378.9392 " fill="none" id="pSend-to-sBufUartTmit" style="stroke:#181818;stroke-width:1.0;"/><polygon fill="#181818" points="340.94,384.88,343.6388,375.4081,340.2391,379.9294,335.7178,376.5296,340.94,384.88" style="stroke:#181818;stroke-width:1.0;"/></g><!--link pSend to sTx--><g id="link_pSend_sTx"><path d="M295.68,252.02 C287.31,261.15 278.57,272.33 273,284 C257.33,316.8 252.6956,353.3218 251.1056,378.6718 " fill="none" id="pSend-to-sTx" style="stroke:#181818;stroke-width:1.0;"/><polygon fill="#181818" points="250.73,384.66,255.2855,375.928,251.043,379.6698,247.3012,375.4273,250.73,384.66" style="stroke:#181818;stroke-width:1.0;"/></g><!--link pRcv to sRx--><g id="link_pRcv_sRx"><path d="M202.2,252.35 C196.4,286.49 186.406,345.2749 180.676,378.9649 " fill="none" id="pRcv-to-sRx" style="stroke:#181818;stroke-width:1.0;"/><polygon fill="#181818" points="179.67,384.88,185.1224,376.6781,180.5084,379.9508,177.2357,375.3367,179.67,384.88" style="stroke:#181818;stroke-width:1.0;"/></g><!--reverse link pRead to sRx--><g id="link_pRead_sRx"><path d="M130.2066,255.9567 C140.3966,264.7767 146.3,271.83 153,284 C170.64,316.03 175.01,359.16 175.95,384.77 " fill="none" id="pRead-backto-sRx" style="stroke:#181818;stroke-width:1.0;"/><polygon fill="#181818" points="125.67,252.03,129.8571,260.9445,129.4505,255.3023,135.0927,254.8956,125.67,252.03" style="stroke:#181818;stroke-width:1.0;"/></g><!--reverse link pRead to sBufUartRcv--><g id="link_pRead_sBufUartRcv"><path d="M93.2364,258.3384 C91.1064,292.4784 87.45,351.19 85.35,384.88 " fill="none" id="pRead-backto-sBufUartRcv" style="stroke:#181818;stroke-width:1.0;"/><polygon fill="#181818" points="93.61,252.35,89.0573,261.0835,93.2987,257.3403,97.0418,261.5816,93.61,252.35" style="stroke:#181818;stroke-width:1.0;"/></g><!--link sBufUartTmit to pLineCtt--><g id="link_sBufUartTmit_pLineCtt"><path d="M335.53,430.07 C327.18,451.31 316.4454,478.6561 306.3254,504.3961 " fill="none" id="sBufUartTmit-to-pLineCtt" style="stroke:#181818;stroke-width:1.0;"/><polygon fill="#181818" points="304.13,509.98,311.1457,503.0677,305.9595,505.3267,303.7005,500.1405,304.13,509.98" style="stroke:#181818;stroke-width:1.0;"/></g><!--reverse link sBufUartRcv to pLineTtc--><g id="link_sBufUartRcv_pLineTtc"><path d="M94.4786,435.6682 C102.6686,456.9082 113.21,484.24 123.14,509.98 " fill="none" id="sBufUartRcv-backto-pLineTtc" style="stroke:#181818;stroke-width:1.0;"/><polygon fill="#181818" points="92.32,430.07,91.8258,439.9065,94.1189,434.7352,99.2901,437.0283,92.32,430.07" style="stroke:#181818;stroke-width:1.0;"/></g><!--link pLineTtc to pLineCtt--><g id="link_pLineTtc_pLineCtt"><path d="M197.68,549.5 C209.21,549.5 208.74,549.5 220.27,549.5 " fill="none" id="pLineTtc-pLineCtt" style="stroke:#181818;stroke-width:1.0;stroke-dasharray:7.0,7.0;"/><polygon fill="#181818" points="191.68,549.5,200.68,553.5,196.68,549.5,200.68,545.5,191.68,549.5" style="stroke:#181818;stroke-width:1.0;"/><polygon fill="#181818" points="226.27,549.5,217.27,545.5,221.27,549.5,217.27,553.5,226.27,549.5" style="stroke:#181818;stroke-width:1.0;"/></g><!--link pLineCtt to pSwt--><g id="link_pLineCtt_pSwt"><path d="M264.53,589.29 C252.12,608.97 240.7019,627.0858 230.2019,643.7258 " fill="none" id="pLineCtt-to-pSwt" style="stroke:#181818;stroke-width:1.0;"/><polygon fill="#181818" points="227,648.8,235.1857,643.3232,229.6682,644.5715,228.42,639.054,227,648.8" style="stroke:#181818;stroke-width:1.0;"/></g><!--reverse link pLineTtc to pSwt--><g id="link_pLineTtc_pSwt"><path d="M165.3107,594.3838 C177.5607,614.0638 188.82,632.16 199.18,648.8 " fill="none" id="pLineTtc-backto-pSwt" style="stroke:#181818;stroke-width:1.0;"/><polygon fill="#181818" points="162.14,589.29,163.5002,599.0445,164.7822,593.5348,170.2919,594.8169,162.14,589.29" style="stroke:#181818;stroke-width:1.0;"/></g><text fill="#888888" font-family="sans-serif" font-size="10" font-weight="bold" lengthAdjust="spacing" textLength="131" x="55" y="709.5791">SingleWireControlling()</text><text fill="#888888" font-family="sans-serif" font-size="10" lengthAdjust="spacing" textLength="172" x="189" y="709.5791">- Internal control &amp; debug structure</text><text fill="#888888" font-family="sans-serif" font-size="10" lengthAdjust="spacing" textLength="167" x="124.5" y="721.2197">(C) DSP-Crowd Electronics GmbH</text><!--SRC=[TPFDRjim3CVFrbCGENHj0FS9YWARDtG5Dg1ml8z3BugYP49jAQ3ePCEmTnybHR6CfZVopny_H8ZlmByOkvSe1-YDrVHdhy4X_N92R5dKi5WPk-lr3uEwGsdzLYCBrpSBa1xsgoC9eTomTrPRWiKNhl5i6sS9NTzh17BFjfEuqvGI0j0GlSv9KEIdz2cd8tLXeamM4pqSuQyG5Mf5Cc2mk00rX7t4gbF9zoEvGP9HAHxSAVXLsb7sAP9iKVsRzxYmcYZDcg0wv62h3fFkjTsS5yfsaQ7bETAo_QhlXt7BNNqaF3kftqQIN4kVvneCdO5l4gbZOKQrMcbpq3CeJJWntmrIta9WWi_TgbctdodS_PxhxKblWnvUK342j_T92KBSEDJtUG79lwjFpsOXBRv4iXAaE6rMohJ0HcJ- -4BdOTdd0ibjaylfNATE4nPkiHsUkooQ1id_km1ZulI9imLtjmKlifNAXBkQm90VBsth7F5HBPTldC1o2JKyMcOixq6b45p1Hg_77NZ2KT68V6tNpGryN3tL3RhZ1Zxr_AFGMQCyF0php-8_]--></g></svg>