<?xml version="1.0" encoding="us-ascii" standalone="no"?><svg xmlns="http://www.w3.org/2000/svg" xmlns:xlink="http://www.w3.org/1999/xlink" contentStyleType="text/css" height="576px" preserveAspectRatio="none" style="width:471px;height:576px;background:#FFFFFF;" version="1.1" viewBox="0 0 471 576" width="471px" zoomAndPan="magnify"><defs/><g><!--cluster pPc--><g id="cluster_pPc"><rect fill="none" height="265" rx="2.5" ry="2.5" style="stroke:#181818;stroke-width:1.0;" width="458" x="7" y="7"/><rect fill="none" height="10" style="stroke:#181818;stroke-width:1.0;" width="15" x="445" y="12"/><rect fill="none" height="2" style="stroke:#181818;stroke-width:1.0;" width="4" x="443" y="14"/><rect fill="none" height="2" style="stroke:#181818;stroke-width:1.0;" width="4" x="443" y="18"/><text fill="#000000" font-family="sans-serif" font-size="14" font-weight="bold" lengthAdjust="spacing" textLength="21" x="225.5" y="32.9951">PC</text></g><!--cluster pTools--><g id="cluster_pTools"><rect fill="none" height="97" rx="2.5" ry="2.5" style="stroke:#181818;stroke-width:1.0;" width="410" x="31" y="50"/><text fill="#000000" font-family="sans-serif" font-size="14" font-weight="bold" lengthAdjust="spacing" textLength="85" x="193.5" y="64.9951">Your Tools</text></g><!--cluster Microcontroller--><g id="cluster_Microcontroller"><rect fill="none" height="204" rx="2.5" ry="2.5" style="stroke:#181818;stroke-width:1.0;" width="228" x="133" y="336"/><rect fill="none" height="10" style="stroke:#181818;stroke-width:1.0;" width="15" x="341" y="341"/><rect fill="none" height="2" style="stroke:#181818;stroke-width:1.0;" width="4" x="339" y="343"/><rect fill="none" height="2" style="stroke:#181818;stroke-width:1.0;" width="4" x="339" y="347"/><text fill="#000000" font-family="sans-serif" font-size="14" font-weight="bold" lengthAdjust="spacing" textLength="120" x="187" y="361.9951">Microcontroller</text></g><!--entity pGw--><g id="elem_pGw"><rect fill="#FFA500" height="46.2969" rx="2.5" ry="2.5" style="stroke:#181818;stroke-width:0.5;" width="102" x="196" y="210"/><path d="M230,210 L230,215 L223,222 L196,222 " fill="none" style="stroke:#181818;stroke-width:0.5;"/><text fill="#000000" font-family="sans-serif" font-size="14" lengthAdjust="spacing" textLength="62" x="211" y="242.9951">CodeOrb</text></g><!--entity pTree--><g id="elem_pTree"><rect fill="#F1F1F1" height="46.2969" rx="2.5" ry="2.5" style="stroke:#181818;stroke-width:0.5;" width="132" x="47" y="85"/><path d="M91,85 L91,90 L84,97 L47,97 " fill="none" style="stroke:#181818;stroke-width:0.5;"/><text fill="#000000" font-family="sans-serif" font-size="14" lengthAdjust="spacing" textLength="92" x="62" y="117.9951">Process Tree</text></g><!--entity pLog--><g id="elem_pLog"><rect fill="#F1F1F1" height="46.2969" rx="2.5" ry="2.5" style="stroke:#181818;stroke-width:0.5;" width="65" x="214.5" y="85"/><path d="M236.1667,85 L236.1667,90 L229.1667,97 L214.5,97 " fill="none" style="stroke:#181818;stroke-width:0.5;"/><text fill="#000000" font-family="sans-serif" font-size="14" lengthAdjust="spacing" textLength="25" x="229.5" y="117.9951">Log</text></g><!--entity pCmd--><g id="elem_pCmd"><rect fill="#F1F1F1" height="46.2969" rx="2.5" ry="2.5" style="stroke:#181818;stroke-width:0.5;" width="111" x="314.5" y="85"/><path d="M351.5,85 L351.5,90 L344.5,97 L314.5,97 " fill="none" style="stroke:#181818;stroke-width:0.5;"/><text fill="#000000" font-family="sans-serif" font-size="14" lengthAdjust="spacing" textLength="71" x="329.5" y="117.9951">Command</text></g><!--entity pSysDbg--><g id="elem_pSysDbg"><rect fill="#F1F1F1" height="46.2969" rx="2.5" ry="2.5" style="stroke:#181818;stroke-width:0.5;" width="196" x="149" y="371"/><path d="M214.3333,371 L214.3333,376 L207.3333,383 L149,383 " fill="none" style="stroke:#181818;stroke-width:0.5;"/><text fill="#000000" font-family="sans-serif" font-size="14" lengthAdjust="spacing" textLength="156" x="164" y="403.9951">&#171;SystemDebugging()&#187;</text></g><!--entity pApp--><g id="elem_pApp"><rect fill="#F1F1F1" height="46.2969" rx="2.5" ry="2.5" style="stroke:#181818;stroke-width:0.5;" width="133" x="180.5" y="478"/><path d="M224.8333,478 L224.8333,483 L217.8333,490 L180.5,490 " fill="none" style="stroke:#181818;stroke-width:0.5;"/><text fill="#000000" font-family="sans-serif" font-size="14" lengthAdjust="spacing" textLength="93" x="195.5" y="510.9951">&#171;Application&#187;</text></g><!--reverse link pTree to pGw--><g id="link_pTree_pGw"><path d="M141.689,135.3286 C165.969,157.6286 198.69,187.66 222.91,209.89 " fill="none" id="pTree-backto-pGw" style="stroke:#181818;stroke-width:2.0;"/><polygon fill="#181818" points="137.27,131.27,141.1927,140.3039,140.9525,134.6522,146.6042,134.412,137.27,131.27" style="stroke:#181818;stroke-width:2.0;"/></g><!--reverse link pLog to pGw--><g id="link_pLog_pGw"><path d="M247,137.27 C247,159.57 247,187.66 247,209.89 " fill="none" id="pLog-backto-pGw" style="stroke:#181818;stroke-width:2.0;"/><polygon fill="#181818" points="247,131.27,243,140.27,247,136.27,251,140.27,247,131.27" style="stroke:#181818;stroke-width:2.0;"/></g><!--link pCmd to pGw--><g id="link_pCmd_pGw"><path d="M343.4874,135.5126 C321.1874,157.8126 295.5826,183.4174 273.3526,205.6474 " fill="none" id="pCmd-pGw" style="stroke:#181818;stroke-width:2.0;"/><polygon fill="#181818" points="347.73,131.27,338.5376,134.8055,344.1945,134.8055,344.1945,140.4624,347.73,131.27" style="stroke:#181818;stroke-width:2.0;"/><polygon fill="#181818" points="269.11,209.89,278.3024,206.3545,272.6455,206.3545,272.6455,200.6976,269.11,209.89" style="stroke:#181818;stroke-width:2.0;"/><text fill="#000000" font-family="sans-serif" font-size="13" lengthAdjust="spacing" textLength="39" x="316" y="176.0669">TCP/IP</text></g><!--link pSysDbg to pApp--><g id="link_pSysDbg_pApp"><path d="M247,423.01 C247,440.81 247,453.77 247,471.66 " fill="none" id="pSysDbg-pApp" style="stroke:#181818;stroke-width:2.0;"/><polygon fill="#181818" points="247,417.01,243,426.01,247,422.01,251,426.01,247,417.01" style="stroke:#181818;stroke-width:2.0;"/><polygon fill="#181818" points="247,477.66,251,468.66,247,472.66,243,468.66,247,477.66" style="stroke:#181818;stroke-width:2.0;"/></g><!--link pGw to pSysDbg--><g id="link_pGw_pSysDbg"><path d="M247,262.11 C247,292.4 247,334.5 247,364.82 " fill="none" id="pGw-pSysDbg" style="stroke:#181818;stroke-width:1.0;"/><polygon fill="#181818" points="247,256.11,243,265.11,247,261.11,251,265.11,247,256.11" style="stroke:#181818;stroke-width:1.0;"/><polygon fill="#181818" points="247,370.82,251,361.82,247,365.82,243,361.82,247,370.82" style="stroke:#181818;stroke-width:1.0;"/><text fill="#000000" font-family="sans-serif" font-size="13" lengthAdjust="spacing" textLength="55" x="267" y="301.0669">COM1 or</text><text fill="#000000" font-family="sans-serif" font-size="13" lengthAdjust="spacing" textLength="85" x="256" y="316.1997">/dev/ttyACM0</text></g><text fill="#888888" font-family="sans-serif" font-size="10" font-weight="bold" lengthAdjust="spacing" textLength="48" x="134" y="554.2822">CodeOrb</text><text fill="#888888" font-family="sans-serif" font-size="10" lengthAdjust="spacing" textLength="138" x="185" y="554.2822">- Debugging Microcontrollers</text><text fill="#888888" font-family="sans-serif" font-size="10" lengthAdjust="spacing" textLength="167" x="145" y="565.9229">(C) DSP-Crowd Electronics GmbH</text><!--SRC=[TPBDQy904CNFxbynf0Sra6fxwA5OGTPY2nK3UYcrXyrcZS5a9-ok5Id-xvry-45hRyDxFsRV6xODTfFgGXYHGvPgvVQ50ZHkZQmDLefCGV_sWJ69UO5QQGSX1s6X22LyCzOoIZgX4yAyTzmQM21crgk8QgoWrehM4n4QbCfQM1Yb6eQci_-6IItJS5OvvhdGSUtmF2Qd3KTlQntcIytNGcjrVBbMMUj0Rv-Mn6fcejgVxE063SLM15GPO11yk7KgDvhoFTr_1YL47WNvpw8aVwnXjViHl0KFUw-XnoXfa-OwomwNf_McgQGJeNO6iqmPhxfUqs0mcE-jK_bOHTiaINNIwGw7THyonb5oGOwA8akbS2dg8qDIMRP6huKf0KfJ5XW4fT2Wr8RFfdVqAPOQe1Uhhvvp-n6VzZt6LeXE6V3zvhw-3m6S4iAlFdQfExmButaOS8Ex69up-Zu6TIejJFBeXVq0]--></g></svg>