<?xml version="1.0" encoding="us-ascii" standalone="no"?><svg xmlns="http://www.w3.org/2000/svg" xmlns:xlink="http://www.w3.org/1999/xlink" contentStyleType="text/css" height="236px" preserveAspectRatio="none" style="width:1282px;height:236px;background:#FFFFFF;" version="1.1" viewBox="0 0 1282 236" width="1282px" zoomAndPan="magnify"><defs/><g><line style="stroke:#333333;stroke-width:0.5;" x1="10" x2="10" y1="10" y2="187.7813"/><line style="stroke:#333333;stroke-width:0.5;" x1="1270" x2="1270" y1="10" y2="187.7813"/><line style="stroke:#333333;stroke-width:0.5;stroke-dasharray:3.0,5.0;" x1="15" x2="15" y1="10" y2="187.7813"/><line style="stroke:#333333;stroke-width:0.5;stroke-dasharray:3.0,5.0;" x1="65" x2="65" y1="10" y2="187.7813"/><line style="stroke:#333333;stroke-width:0.5;stroke-dasharray:3.0,5.0;" x1="115" x2="115" y1="10" y2="187.7813"/><line style="stroke:#333333;stroke-width:0.5;stroke-dasharray:3.0,5.0;" x1="165" x2="165" y1="10" y2="187.7813"/><line style="stroke:#333333;stroke-width:0.5;stroke-dasharray:3.0,5.0;" x1="215" x2="215" y1="10" y2="187.7813"/><line style="stroke:#333333;stroke-width:0.5;stroke-dasharray:3.0,5.0;" x1="265" x2="265" y1="10" y2="187.7813"/><line style="stroke:#333333;stroke-width:0.5;stroke-dasharray:3.0,5.0;" x1="315" x2="315" y1="10" y2="187.7813"/><line style="stroke:#333333;stroke-width:0.5;stroke-dasharray:3.0,5.0;" x1="365" x2="365" y1="10" y2="187.7813"/><line style="stroke:#333333;stroke-width:0.5;stroke-dasharray:3.0,5.0;" x1="415" x2="415" y1="10" y2="187.7813"/><line style="stroke:#333333;stroke-width:0.5;stroke-dasharray:3.0,5.0;" x1="465" x2="465" y1="10" y2="187.7813"/><line style="stroke:#333333;stroke-width:0.5;stroke-dasharray:3.0,5.0;" x1="515" x2="515" y1="10" y2="187.7813"/><line style="stroke:#333333;stroke-width:0.5;stroke-dasharray:3.0,5.0;" x1="565" x2="565" y1="10" y2="187.7813"/><line style="stroke:#333333;stroke-width:0.5;stroke-dasharray:3.0,5.0;" x1="615" x2="615" y1="10" y2="187.7813"/><line style="stroke:#333333;stroke-width:0.5;stroke-dasharray:3.0,5.0;" x1="665" x2="665" y1="10" y2="187.7813"/><line style="stroke:#333333;stroke-width:0.5;stroke-dasharray:3.0,5.0;" x1="715" x2="715" y1="10" y2="187.7813"/><line style="stroke:#333333;stroke-width:0.5;stroke-dasharray:3.0,5.0;" x1="765" x2="765" y1="10" y2="187.7813"/><line style="stroke:#333333;stroke-width:0.5;stroke-dasharray:3.0,5.0;" x1="815" x2="815" y1="10" y2="187.7813"/><line style="stroke:#333333;stroke-width:0.5;stroke-dasharray:3.0,5.0;" x1="865" x2="865" y1="10" y2="187.7813"/><line style="stroke:#333333;stroke-width:0.5;stroke-dasharray:3.0,5.0;" x1="915" x2="915" y1="10" y2="187.7813"/><line style="stroke:#333333;stroke-width:0.5;stroke-dasharray:3.0,5.0;" x1="965" x2="965" y1="10" y2="187.7813"/><line style="stroke:#333333;stroke-width:0.5;stroke-dasharray:3.0,5.0;" x1="1015" x2="1015" y1="10" y2="187.7813"/><line style="stroke:#333333;stroke-width:0.5;stroke-dasharray:3.0,5.0;" x1="1065" x2="1065" y1="10" y2="187.7813"/><line style="stroke:#333333;stroke-width:0.5;stroke-dasharray:3.0,5.0;" x1="1115" x2="1115" y1="10" y2="187.7813"/><line style="stroke:#333333;stroke-width:0.5;stroke-dasharray:3.0,5.0;" x1="1165" x2="1165" y1="10" y2="187.7813"/><line style="stroke:#333333;stroke-width:0.5;stroke-dasharray:3.0,5.0;" x1="1215" x2="1215" y1="10" y2="187.7813"/><line style="stroke:#333333;stroke-width:0.5;stroke-dasharray:3.0,5.0;" x1="1265" x2="1265" y1="10" y2="187.7813"/><line style="stroke:#333333;stroke-width:0.5;" x1="10" x2="1270" y1="10" y2="10"/><text fill="#333333" font-family="sans-serif" font-size="14" font-weight="bold" lengthAdjust="spacing" textLength="67" x="15" y="22.9951">UART TX</text><text fill="#333333" font-family="sans-serif" font-size="14" font-weight="bold" lengthAdjust="spacing" textLength="77" x="15" y="39.292">Data from</text><text fill="#333333" font-family="sans-serif" font-size="14" font-weight="bold" lengthAdjust="spacing" textLength="123" x="15" y="55.5889">Controller (GW)</text><line style="stroke:#333333;stroke-width:0.5;" x1="10" x2="139" y1="59.8906" y2="59.8906"/><line style="stroke:#333333;stroke-width:0.5;" x1="139" x2="149" y1="59.8906" y2="10"/><line style="stroke:#006400;stroke-width:1.5;" x1="15" x2="165" y1="76.8906" y2="76.8906"/><line style="stroke:#006400;stroke-width:1.5;" x1="165" x2="215" y1="76.8906" y2="76.8906"/><polygon fill="#E2E2F0" points="227,64.8906,253,64.8906,265,76.8906,253,88.8906,227,88.8906,215,76.8906" style="stroke:#006400;stroke-width:1.5;"/><polygon fill="#E2E2F0" points="277,64.8906,303,64.8906,315,76.8906,303,88.8906,277,88.8906,265,76.8906" style="stroke:#006400;stroke-width:1.5;"/><polygon fill="#E2E2F0" points="327,64.8906,503,64.8906,515,76.8906,503,88.8906,327,88.8906,315,76.8906" style="stroke:#006400;stroke-width:1.5;"/><polygon fill="#E2E2F0" points="527,64.8906,553,64.8906,565,76.8906,553,88.8906,527,88.8906,515,76.8906" style="stroke:#006400;stroke-width:1.5;"/><line style="stroke:#006400;stroke-width:1.5;" x1="565" x2="665" y1="76.8906" y2="76.8906"/><polygon fill="#E2E2F0" points="677,64.8906,703,64.8906,715,76.8906,703,88.8906,677,88.8906,665,76.8906" style="stroke:#006400;stroke-width:1.5;"/><line style="stroke:#006400;stroke-width:1.5;" x1="715" x2="1115" y1="76.8906" y2="76.8906"/><polygon fill="#E2E2F0" points="1127,64.8906,1153,64.8906,1165,76.8906,1153,88.8906,1127,88.8906,1115,76.8906" style="stroke:#006400;stroke-width:1.5;"/><line style="stroke:#006400;stroke-width:1.5;" x1="1165" x2="1265" y1="76.8906" y2="76.8906"/><text fill="#333333" font-family="sans-serif" font-size="12" font-weight="bold" lengthAdjust="spacing" textLength="16" x="232" y="81.0449">F1</text><text fill="#333333" font-family="sans-serif" font-size="12" font-weight="bold" lengthAdjust="spacing" textLength="16" x="282" y="81.0449">90</text><text fill="#333333" font-family="sans-serif" font-size="12" font-weight="bold" lengthAdjust="spacing" textLength="69" x="380.5" y="81.0449">Command</text><text fill="#333333" font-family="sans-serif" font-size="12" font-weight="bold" lengthAdjust="spacing" textLength="16" x="532" y="81.0449">17</text><text fill="#333333" font-family="sans-serif" font-size="12" font-weight="bold" lengthAdjust="spacing" textLength="16" x="682" y="81.0449">F2</text><text fill="#333333" font-family="sans-serif" font-size="12" font-weight="bold" lengthAdjust="spacing" textLength="16" x="1132" y="81.0449">F2</text><line style="stroke:#333333;stroke-width:0.5;" x1="10" x2="1270" y1="98.8906" y2="98.8906"/><text fill="#333333" font-family="sans-serif" font-size="14" font-weight="bold" lengthAdjust="spacing" textLength="67" x="15" y="111.8857">UART RX</text><text fill="#333333" font-family="sans-serif" font-size="14" font-weight="bold" lengthAdjust="spacing" textLength="77" x="15" y="128.1826">Data from</text><text fill="#333333" font-family="sans-serif" font-size="14" font-weight="bold" lengthAdjust="spacing" textLength="52" x="15" y="144.4795">Target</text><line style="stroke:#333333;stroke-width:0.5;" x1="10" x2="93" y1="148.7813" y2="148.7813"/><line style="stroke:#333333;stroke-width:0.5;" x1="93" x2="103" y1="148.7813" y2="98.8906"/><line style="stroke:#006400;stroke-width:1.5;" x1="15" x2="165" y1="165.7813" y2="165.7813"/><line style="stroke:#006400;stroke-width:1.5;" x1="165" x2="715" y1="165.7813" y2="165.7813"/><polygon fill="#E2E2F0" points="727,153.7813,753,153.7813,765,165.7813,753,177.7813,727,177.7813,715,165.7813" style="stroke:#006400;stroke-width:1.5;"/><polygon fill="#E2E2F0" points="777,153.7813,953,153.7813,965,165.7813,953,177.7813,777,177.7813,765,165.7813" style="stroke:#006400;stroke-width:1.5;"/><polygon fill="#E2E2F0" points="977,153.7813,1003,153.7813,1015,165.7813,1003,177.7813,977,177.7813,965,165.7813" style="stroke:#006400;stroke-width:1.5;"/><line style="stroke:#006400;stroke-width:1.5;" x1="1015" x2="1165" y1="165.7813" y2="165.7813"/><polygon fill="#E2E2F0" points="1177,153.7813,1203,153.7813,1215,165.7813,1203,177.7813,1177,177.7813,1165,165.7813" style="stroke:#006400;stroke-width:1.5;"/><line style="stroke:#006400;stroke-width:1.5;" x1="1215" x2="1265" y1="165.7813" y2="165.7813"/><text fill="#333333" font-family="sans-serif" font-size="12" font-weight="bold" lengthAdjust="spacing" textLength="17" x="731.5" y="169.9355">A3</text><text fill="#333333" font-family="sans-serif" font-size="12" font-weight="bold" lengthAdjust="spacing" textLength="143" x="793.5" y="169.9355">Command Response</text><text fill="#333333" font-family="sans-serif" font-size="12" font-weight="bold" lengthAdjust="spacing" textLength="16" x="982" y="169.9355">17</text><text fill="#333333" font-family="sans-serif" font-size="12" font-weight="bold" lengthAdjust="spacing" textLength="17" x="1181.5" y="169.9355">A0</text><text fill="#888888" font-family="sans-serif" font-size="10" font-weight="bold" lengthAdjust="spacing" textLength="128" x="437" y="209.8682">SingleWireControling()</text><text fill="#888888" font-family="sans-serif" font-size="10" lengthAdjust="spacing" textLength="274" x="568" y="209.8682">Controller to Target and back - Command and Response</text><text fill="#888888" font-family="sans-serif" font-size="10" lengthAdjust="spacing" textLength="167" x="556" y="221.5088">(C) DSP-Crowd Electronics GmbH</text><!--SRC=[bL7FIyCm6Btdh_Z8gQqKkYdgRXkTpgDqbUtGIzP-su99Faa22kB_RZSRrjKXU4lUZxmNtbus25vgJCM7T8pLP6hf4FZBh2YXN5TcBho0hILTcPoCjwGKMeWMgvY3S51xgmQkujnL2hj3VnHxOHcRPknW0kdWC_rYBHQER7fr-nSvFf7ySSI7q2Jx1UMajJ3D4R_luQExeRIBkEb7Z2-9kafyTXtOW7HXKA1x8-Cmf0R-57h-hNzaPfTUs1BvTf8aMKgpKxYI5hkbsdiK9mdqXlC4FuF0eUf6rA-GGcZURr-PA8zXldnESqll3JmeR2kHaRM3XTuyiMy0]--></g></svg>